<svg id="_54" data-name="54" xmlns="http://www.w3.org/2000/svg" viewBox="0 0 170 170"><defs><style>.cls-1{opacity:0;}.cls-2{fill:#2580b2;}.Graphic-Style,.cls-3,.cls-4{fill:none;}.Graphic-Style{stroke:#fff;stroke-linejoin:bevel;stroke-width:2px;}.cls-3{stroke:#930;}.cls-3,.cls-4{stroke-linecap:round;stroke-linejoin:round;}.cls-4{stroke:#36eaa5;stroke-width:3px;}</style></defs><title>54_tool2C</title><g id="transparent_bg" data-name="transparent bg" class="cls-1"><rect class="cls-2" width="170" height="170"/></g><g id="tool2C"><path class="Graphic-Style" d="M39.5,76.61l25-12.2a27.86,27.86,0,0,0-7.07-9.09Z"/><path class="Graphic-Style" d="M85.83,20.9L75.17,33.74a16.69,16.69,0,0,0,21.27,0Z"/><path class="Graphic-Style" d="M132.16,76.61L114,55.52a27.86,27.86,0,0,0-6.8,8.79Z"/><path class="Graphic-Style" d="M39.5,76.61l25-12.2a27.86,27.86,0,0,0-7.07-9.09Z"/><path class="Graphic-Style" d="M85.83,20.9L75.17,33.74a16.69,16.69,0,0,0,21.27,0Z"/><path class="Graphic-Style" d="M132.16,76.61L114,55.52a27.86,27.86,0,0,0-6.8,8.79Z"/></g><g id="shape"><g id="Layer_1" data-name="Layer 1"><path class="cls-3" d="M85.31,20.9L39.5,76.78"/><path class="cls-3" d="M39.5,76.78L76.57,58.25"/><path class="cls-3" d="M76.57,58.25v92.67"/><path class="cls-3" d="M76.57,150.92H95.1"/><path class="cls-3" d="M95.1,150.92V58.25"/><path class="cls-3" d="M95.1,58.25l37.06,18.53"/><path class="cls-3" d="M132.16,76.78L85.31,20.9"/><path class="cls-4" d="M85.31,20.9L39.5,76.78"/><path class="cls-4" d="M39.5,76.78L76.57,58.25"/><path class="cls-4" d="M76.57,58.25v92.67"/><path class="cls-4" d="M76.57,150.92H95.1"/><path class="cls-4" d="M95.1,150.92V58.25"/><path class="cls-4" d="M95.1,58.25l37.06,18.53"/><path class="cls-4" d="M132.16,76.78L85.31,20.9"/></g></g></svg>