<svg id="_54" data-name="54" xmlns="http://www.w3.org/2000/svg" xmlns:xlink="http://www.w3.org/1999/xlink" viewBox="0 0 170 170"><defs><style>.cls-1{font-size:10px;fill:#fff;font-family:Arial;font-style:italic;}.cls-2{opacity:0;}.cls-3{fill:#2580b2;}.cls-4,.cls-5{fill:none;stroke-linecap:round;stroke-linejoin:round;}.cls-4{stroke:#930;}.cls-5{stroke:#36eaa5;stroke-width:3px;}</style><symbol id="NotApplicable" data-name="NotApplicable" viewBox="0 0 64.11 11.83"><text class="cls-1" transform="translate(0 8.58)">Not<tspan x="15.56" y="0"> </tspan><tspan x="17.97" y="0">Applicable</tspan></text></symbol></defs><title>54_tool2A</title><g id="transparent_bg" data-name="transparent bg" class="cls-2"><rect class="cls-3" width="170" height="170"/></g><g id="tool2A"><use width="64.11" height="11.83" transform="translate(54.83 154.7)" xlink:href="#NotApplicable"/></g><g id="shape"><g id="Layer_1" data-name="Layer 1"><path class="cls-4" d="M85.31,20.9L39.5,76.78"/><path class="cls-4" d="M39.5,76.78L76.57,58.25"/><path class="cls-4" d="M76.57,58.25v92.67"/><path class="cls-4" d="M76.57,150.92H95.1"/><path class="cls-4" d="M95.1,150.92V58.25"/><path class="cls-4" d="M95.1,58.25l37.06,18.53"/><path class="cls-4" d="M132.16,76.78L85.31,20.9"/><path class="cls-5" d="M85.31,20.9L39.5,76.78"/><path class="cls-5" d="M39.5,76.78L76.57,58.25"/><path class="cls-5" d="M76.57,58.25v92.67"/><path class="cls-5" d="M76.57,150.92H95.1"/><path class="cls-5" d="M95.1,150.92V58.25"/><path class="cls-5" d="M95.1,58.25l37.06,18.53"/><path class="cls-5" d="M132.16,76.78L85.31,20.9"/></g></g></svg>