<svg xmlns="http://www.w3.org/2000/svg" viewBox="0 0 170 170"><defs><style>.a{opacity:0;}.b{fill:#2580b2;}.c,.d,.e{fill:none;}.c{stroke:#fff;stroke-linejoin:bevel;stroke-width:2px;}.d{stroke:#000;}.d,.e{stroke-linecap:round;stroke-linejoin:round;}.e{stroke:#36eaa5;stroke-width:3px;}</style></defs><title>69_tool2A</title><g class="a"><rect class="b" width="170" height="170"/></g><path class="c" d="M58.48,114.78l7.91,7.87a11.15,11.15,0,0,0-7.91-19h0Z"/><path class="c" d="M111.52,114.78l0-11.15a11.15,11.15,0,0,0-7.86,19Z"/><path class="c" d="M58.48,114.78l7.91,7.87a11.15,11.15,0,0,0-7.91-19h0Z"/><path class="c" d="M111.52,114.78l0-11.15a11.15,11.15,0,0,0-7.86,19Z"/><path class="d" d="M58.48,114.78L85,141.31"/><path class="d" d="M85,141.31l26.52-26.52"/><path class="e" d="M58.48,114.78L85,141.31"/><path class="e" d="M85,141.31l26.52-26.52"/><path class="e" d="M111.52,35.35a35.67,35.67,0,0,1-53,0"/><line class="e" x1="58.48" y1="35.22" x2="58.48" y2="35.35"/><line class="e" x1="58.48" y1="35.35" x2="58.48" y2="114.78"/><line class="e" x1="111.52" y1="35.22" x2="111.52" y2="35.35"/><line class="e" x1="111.52" y1="35.35" x2="111.52" y2="114.78"/></svg>