<svg xmlns="http://www.w3.org/2000/svg" viewBox="0 0 170 170"><defs><style>.a{opacity:0;}.b{fill:#2580b2;}.c,.d,.e{fill:none;stroke-linecap:round;stroke-linejoin:round;}.c{stroke:#000;}.d{stroke:#36eaa5;stroke-width:3px;}.e{stroke:#fff;stroke-width:2px;}</style></defs><title>68_tool3</title><g class="a"><rect class="b" width="170" height="170"/></g><path class="c" d="M31.57,48.47v90"/><path class="c" d="M138.43,48.47v90"/><path class="c" d="M31.57,138.43H138.43"/><path class="d" d="M31.57,48.47v90"/><path class="d" d="M138.43,48.47v90"/><path class="d" d="M31.57,138.43H138.43"/><path class="d" d="M138.43,48.64"/><path class="d" d="M151.59,18.89"/><path class="d" d="M138.43,48.64a66.59,66.59,0,0,1-106.86,0"/><path class="d" d="M18.41,18.89"/><path class="d" d="M31.57,48.64"/><path class="d" d="M31.57,138.43"/><path class="d" d="M31.57,48.64"/><line class="d" x1="31.57" y1="48.47" x2="31.57" y2="48.64"/><path class="d" d="M138.43,138.43"/><path class="d" d="M138.43,48.64"/><line class="d" x1="138.43" y1="48.47" x2="138.43" y2="48.64"/><polyline class="e" points="22.79 99.58 31.57 92.58 40.34 99.58"/><polyline class="e" points="129.66 99.58 138.43 92.58 147.21 99.58"/><line class="e" x1="31.57" y1="49.28" x2="31.57" y2="138.43"/><line class="e" x1="138.43" y1="48.47" x2="138.43" y2="137.62"/></svg>