<svg xmlns="http://www.w3.org/2000/svg" width="74.55" height="22.5"><g fill-rule="evenodd" clip-rule="evenodd"><path fill-opacity=".4" d="M74.05 7.83c.33 1.07.5 2.2.5 3.42 0 3.1-1.1 5.75-3.3 7.95-2.2 2.2-4.85 3.3-7.95 3.3H11.25c-3.1 0-5.75-1.1-7.95-3.3-.48-.5-.92-1-1.3-1.52-.33-1.08-.5-2.22-.5-3.43 0-3.1 1.1-5.75 3.3-7.95C7 4.1 9.65 3 12.75 3H64.8c3.1 0 5.75 1.1 7.95 3.3.5.5.92 1 1.3 1.53z"/><path fill-opacity=".6" d="M2 17.68c-1.33-1.87-2-4-2-6.43C0 8.15 1.1 5.5 3.3 3.3 5.5 1.1 8.15 0 11.25 0H63.3c3.1 0 5.75 1.1 7.95 3.3 1.34 1.34 2.27 2.85 2.8 4.53-.38-.54-.8-1.04-1.3-1.53C70.55 4.1 67.9 3 64.8 3H12.75C9.65 3 7 4.1 4.8 6.3c-2.2 2.2-3.3 4.85-3.3 7.95 0 1.2.17 2.35.5 3.43z"/></g></svg>