<svg xmlns="http://www.w3.org/2000/svg" viewBox="0 0 89 60" enable-background="new 0 0 89 60"><style type="text/css">.st0{fill:none;stroke:#FFFFFF;stroke-width:5;stroke-linecap:round;stroke-linejoin:round;stroke-opacity:0.298;} .st1{fill:#FFFFFF;fill-opacity:0.6;} .st2{fill:#A6A26A;} .st3{fill:#E2E2E2;fill-opacity:0.498;}</style><path id="wire_0_Layer0_0_1_STROKES" d="M10.1 13c35.5-5.9 57.1 4.8 65 32" class="st0"/><path id="wire_0_Layer0_1_STROKES_1_FILL" d="M9.6 10.4c0 .1 0 .1 0 0l.8 5s0 .1.1.1h.1s.1 0 .1-.1c0 0 0 0 0-.1l-.8-4.9s0 0 0-.1c-.2.1-.2.1-.3.1m4-.6c-.1.1-.1.1-.1.2l.6 5s0 .1.1.1h.2s0 0 0-.1l-.6-5c-.1-.2-.1-.2-.2-.2m4.1-.4h-.1v.1l.5 5v.1h.1s.1 0 .1-.1l-.5-5s0-.1-.1-.1m3.9-.3s0 .1-.1.1l.3 5v.1h.2s0 0 0-.1l-.3-5s0-.1-.1-.1c.1 0 .1 0 0 0m4.3 5s.1 0 .1-.1l-.1-5v-.1s0 0-.1-.1c0 0-.1 0-.1.1V9l.1 5v.1h.1m4-5.3s-.1 0-.1.1c0 0 0 .1-.1.1l-.1 5 .1.1.1-.1.1-5c.1 0 .1-.1 0-.2 0 .1 0 .1 0 0m3.9.3c-.1.1-.1.1-.2.1l-.3 5s0 0 0 .1c0 0 .1.1.1 0l.1-.1.3-5c.2 0 .2-.1 0-.1.1 0 .1 0 0 0m4.1.3c0 .1-.1.1 0 0-.1.1-.1.1-.2.1l-.6 5c0 .1 0 .1 0 .1s0 .1.1.1.1 0 .1 0l.1-.1.6-5s0-.1-.1-.2c.1.1 0 .1 0 0m4 .7c-.1.1-.1.1-.1.1l-.9 4.9c0 .1 0 .1 0 .1s0 .1.1.1.1 0 .1 0l.1-.1.9-4.9v-.1c-.1-.1-.1-.1-.2-.1m4 .9c-.1.1-.1.1-.1.1l-1.2 4.8c0 .1 0 .1.1.1 0 0 0 .1 0 0 .1 0 .1 0 .1 0s.1-.1 0-.1l1.1-4.9c.1 0 .1 0 0 0m25.3 29.2c-.1 0-.1.1 0 0-.1.1-.1.2-.1.2h.2l4.7-1.6v-.1s-.1 0-.1-.1l-4.7 1.6m3.3-5.5l-4.7 2-.1.1v.1s.1.1.1 0h.1l4.6-2s.1 0 0 0c0 0 0-.1 0-.2 0 .1 0 0 0 0m2.7 8.3s0-.1 0 0c.1-.1.1-.1.1-.2h-.1L72.3 44s0 .1-.1.1l.1.1 4.9-1.2M64.7 20.8s-.1 0 0 0l-3.5 3.8v.2h.2l3.4-3.7s0 0 0-.1 0-.2-.1-.2m-10.8-7.1s-.1 0 0 0c-.1 0-.2.1-.2.1l-2 4.6v.1s.1.1.1 0h.1s.1 0 0 0l2-4.6c.1 0 .1-.1 0-.2.1.1 0 0 0 0m-4-1.4s-.1 0 0 0L48.2 17s0 .1.1.1c0 0 0 .1.1.1h.1s.1 0 0-.1l1.6-4.7v-.1c-.1 0-.1-.1-.2 0 .1-.1 0-.1 0 0m7.9 3.6c0-.1 0-.1-.1-.1 0 0 0 0-.1-.1 0 0 0 0 0 .1L55.1 20s0 .1-.1.1c0 0 0 .1.1.1h.2l2.5-4.3m3.6 2.4s0 0 0-.1c0 0 0 0-.1-.1 0 0 0 0-.1 0 0 0 0 0-.1 0l-2.9 4s0 .1-.1.1c0 0 0 .1.1.1h.2l3-4M72.6 31c-.1 0-.1 0 0 0l-4.5 2.5H68s0 .1.1.1c0 0 0 .1 0 0h.1l4.4-2.4V31c.1.1.1.1 0 0m-2.3-3.7c-.1 0-.2 0-.2 0L66 30.2s0 0-.1 0c0 .1 0 .1.1.1v.1c.1 0 .1 0 .1 0l4.1-2.9s.1-.1 0-.1c.2 0 .2-.1.1-.1m-2.5-3.4c-.1 0-.1 0 0 0-.1 0-.2 0-.2 0l-3.8 3.3s0 .1-.1.1c0 0 0 0 .1 0l.1.1s0 0 .1 0l3.8-3.3c-.1 0 0-.1 0-.2 0 .1 0 0 0 0z" class="st1"/><path id="wire_0_Layer0_2_FILL" d="M16.6 18.1c1.3-1.2 1.9-2.7 1.9-4.5s-.6-3.3-1.9-4.6c-1.2-1.2-2.7-1.9-4.5-1.9S8.8 7.7 7.6 9s-1.9 2.8-1.9 4.6.6 3.3 1.9 4.5c1.3 1.3 2.8 1.9 4.5 1.9s3.2-.6 4.5-1.9z" class="st2"/><path id="wire_0_Layer0_2_STROKES_1_FILL" d="M15.6 18.1c0 .3.1.5.3.7s.4.3.7.3.5-.1.7-.3c.2-.2.3-.4.3-.7s-.1-.5-.3-.7c-.2-.2-.4-.3-.7-.3-.3 0-.5.1-.7.3-.2.2-.3.4-.3.7M8 17.2c-.2-.2-.4-.3-.7-.3-.3 0-.5.1-.7.3-.2.2-.3.4-.3.7 0 .3.1.5.3.7.2.2.4.3.7.3s.5-.1.7-.3c.2-.2.3-.4.3-.7s-.1-.5-.3-.7m4.6 2.1c-.2-.2-.4-.3-.6-.3-.3 0-.5.1-.7.3-.2.2-.3.4-.3.7s.1.5.3.7.4.3.7.3.5-.1.7-.3c.2-.2.3-.4.3-.7 0-.3-.1-.5-.4-.7M5 12.6c-.2.2-.3.4-.3.7s.1.5.3.7.4.3.7.3c.3 0 .5-.1.7-.3s.3-.4.3-.7-.1-.5-.3-.7c-.2-.2-.4-.3-.7-.3s-.5.1-.7.3m1.9-3.8c0 .2.1.5.3.6s.4.3.7.3c.3 0 .5-.1.7-.3.2-.1.3-.4.3-.6 0-.3-.1-.5-.3-.7-.2-.3-.4-.3-.7-.3-.3 0-.5.1-.7.3-.2.2-.3.4-.3.7m4.9-2.3c-.2.2-.3.4-.3.7 0 .3.1.5.3.7s.4.3.7.3.5-.1.7-.3.3-.4.3-.7c0-.3-.1-.5-.3-.7s-.4-.3-.7-.3-.6.1-.7.3m6.7 6.3c-.3 0-.5.1-.7.3s-.3.4-.3.7.1.5.3.7c.2.2.4.3.7.3.3 0 .5-.1.7-.3s.3-.4.3-.7-.1-.5-.3-.7-.5-.3-.7-.3m-.9-4.1c-.2-.2-.4-.3-.7-.3-.3 0-.5.1-.7.3s-.3.4-.3.7.1.5.3.7c.2.2.4.3.7.3.3 0 .5-.1.7-.3s.3-.4.3-.7-.1-.5-.3-.7z" class="st3"/><path id="wire_0_Layer0_3_FILL" d="M79.8 51.1c1.3-1.2 1.9-2.7 1.9-4.5s-.6-3.3-1.9-4.5c-1.2-1.2-2.7-1.9-4.5-1.9s-3.3.6-4.5 1.8c-1.2 1.3-1.9 2.8-1.9 4.5 0 1.8.6 3.3 1.9 4.5 1.3 1.3 2.8 1.9 4.5 1.9s3.3-.5 4.5-1.8z" class="st2"/><path id="wire_0_Layer0_3_STROKES_1_FILL" d="M78.8 51.1c0 .3.1.5.3.7.2.2.4.3.7.3s.5-.1.7-.3.3-.4.3-.7-.1-.5-.3-.7c-.2-.2-.4-.3-.7-.3s-.5.1-.7.3c-.2.2-.3.4-.3.7m-7.5-.9c-.2-.2-.4-.3-.7-.3s-.5.1-.7.3-.3.4-.3.7.1.5.3.7c.2.2.4.3.7.3s.5-.1.7-.3.3-.4.3-.7-.2-.5-.3-.7m4.6 2.1c-.2-.2-.4-.3-.7-.3-.3 0-.5.1-.7.3s-.3.4-.3.7.1.5.3.7c.2.2.4.3.7.3.3 0 .5-.1.7-.3s.3-.4.3-.7c0-.3-.1-.5-.3-.7m-7.7-6.7c-.2.2-.3.4-.3.7s.1.5.3.7c.2.2.4.3.7.3.3 0 .5-.1.7-.3s.3-.4.3-.7-.1-.5-.3-.7c-.2-.2-.4-.3-.7-.3s-.5.1-.7.3m2-3.8c0 .3.1.5.3.7.2.2.4.3.7.3.3 0 .5-.1.7-.3s.3-.4.3-.7-.1-.5-.3-.7c-.2-.2-.4-.3-.7-.3-.3 0-.5.1-.7.3s-.4.4-.3.7m4.8-2.3c-.2.2-.3.4-.3.7s.1.5.3.7c.2.2.4.3.7.3.3 0 .5-.1.7-.3s.3-.4.3-.7-.1-.5-.3-.7-.4-.3-.7-.3-.5.1-.7.3m6.7 6.3c-.3 0-.5.1-.7.3s-.3.4-.3.7.1.5.3.7c.2.2.4.3.7.3.3 0 .5-.1.7-.3s.3-.4.3-.7-.1-.5-.3-.7c-.2-.2-.4-.3-.7-.3m-.9-4.1c-.2-.2-.4-.3-.7-.3-.3 0-.5.1-.7.3s-.3.4-.3.7.1.5.3.7c.2.2.4.3.7.3.3 0 .5-.1.7-.3s.3-.4.3-.7-.1-.5-.3-.7z" class="st3"/></svg>