<svg id="_54" data-name="54" xmlns="http://www.w3.org/2000/svg" viewBox="0 0 170 170"><defs><style>.cls-1{opacity:0;}.cls-2{fill:#2580b2;}.cls-3,.cls-4,.cls-5,.cls-6,.cls-7{fill:none;}.cls-3{stroke:#930;}.cls-3,.cls-4{stroke-linecap:round;stroke-linejoin:round;}.cls-4{stroke:#36eaa5;stroke-width:3px;}.cls-5{stroke:#bc66ff;}.cls-5,.cls-6,.cls-7{stroke-miterlimit:10;stroke-width:2px;}.cls-6{stroke:#ffe566;}.cls-7{stroke:#f66;}</style></defs><title>54_tool1B</title><g id="transparent_bg" data-name="transparent bg" class="cls-1"><rect class="cls-2" width="170" height="170"/></g><g id="shape"><g id="Layer_1" data-name="Layer 1"><path class="cls-3" d="M85.31,20.9L39.5,76.78"/><path class="cls-3" d="M39.5,76.78L76.57,58.25"/><path class="cls-3" d="M76.57,58.25v92.67"/><path class="cls-3" d="M76.57,150.92H95.1"/><path class="cls-3" d="M95.1,150.92V58.25"/><path class="cls-3" d="M95.1,58.25l37.06,18.53"/><path class="cls-3" d="M132.16,76.78L85.31,20.9"/><path class="cls-4" d="M85.31,20.9L39.5,76.78"/><path class="cls-4" d="M39.5,76.78L76.57,58.25"/><path class="cls-4" d="M76.57,58.25v92.67"/><path class="cls-4" d="M76.57,150.92H95.1"/><path class="cls-4" d="M95.1,150.92V58.25"/><path class="cls-4" d="M95.1,58.25l37.06,18.53"/><path class="cls-4" d="M132.16,76.78L85.31,20.9"/></g></g><g id="tool1B_L"><path class="cls-5" d="M85.31,20.9L40,76.61"/><path class="cls-5" d="M132.16,76.78L85.31,20.9"/></g><g id="tool1B_Y"><path class="cls-6" d="M39.5,76.61L76.57,58.14"/><path class="cls-6" d="M95.1,58.28l37.06,18.48"/></g><g id="tool1B_R"><path class="cls-7" d="M76.57,58.14v92.38"/><path class="cls-7" d="M95.1,150.78V58.39"/></g></svg>