<svg id="_54" data-name="54" xmlns="http://www.w3.org/2000/svg" viewBox="0 0 170 170"><defs><style>.cls-1{opacity:0;}.cls-2{fill:#2580b2;}.cls-3,.cls-4,.cls-5{fill:none;stroke-linecap:round;stroke-linejoin:round;}.cls-3{stroke:#930;}.cls-4{stroke:#36eaa5;stroke-width:3px;}.cls-5{stroke:#fff;stroke-width:2px;}</style></defs><title>54_tool3</title><g id="transparent_bg" data-name="transparent bg" class="cls-1"><rect class="cls-2" width="170" height="170"/></g><g id="shape"><g id="Layer_1" data-name="Layer 1"><path class="cls-3" d="M85.31,20.9L39.5,76.78"/><path class="cls-3" d="M39.5,76.78L76.57,58.25"/><path class="cls-3" d="M76.57,58.25v92.67"/><path class="cls-3" d="M76.57,150.92H95.1"/><path class="cls-3" d="M95.1,150.92V58.25"/><path class="cls-3" d="M95.1,58.25l37.06,18.53"/><path class="cls-3" d="M132.16,76.78L85.31,20.9"/><path class="cls-4" d="M85.31,20.9L39.5,76.78"/><path class="cls-4" d="M39.5,76.78L76.57,58.25"/><path class="cls-4" d="M76.57,58.25v92.67"/><path class="cls-4" d="M76.57,150.92H95.1"/><path class="cls-4" d="M95.1,150.92V58.25"/><path class="cls-4" d="M95.1,58.25l37.06,18.53"/><path class="cls-4" d="M132.16,76.78L85.31,20.9"/></g></g><g id="tool3"><polyline class="cls-5" points="88.72 111.77 95.1 104.77 101.48 111.77"/><polyline class="cls-5" points="70.19 111.77 76.57 104.77 82.94 111.77"/><line class="cls-5" x1="76.57" y1="58.14" x2="76.57" y2="150.52"/><line class="cls-5" x1="95.1" y1="58.14" x2="95.1" y2="150.52"/></g></svg>