<svg id="_54" data-name="54" xmlns="http://www.w3.org/2000/svg" viewBox="0 0 170 170"><defs><style>.cls-1{opacity:0;}.cls-2{fill:#2580b2;}.cls-3,.cls-4,.cls-5,.cls-6{fill:none;}.cls-3{stroke:#930;}.cls-3,.cls-4,.cls-5{stroke-linecap:round;stroke-linejoin:round;}.cls-4{stroke:#36eaa5;stroke-width:3px;}.cls-5,.cls-6{stroke:#fff;stroke-width:2px;}.cls-6{stroke-miterlimit:10;}</style></defs><title>54_tool1</title><g id="transparent_bg" data-name="transparent bg" class="cls-1"><rect class="cls-2" width="170" height="170"/></g><g id="shape"><g id="Layer_1" data-name="Layer 1"><path class="cls-3" d="M85.31,20.9L39.5,76.78"/><path class="cls-3" d="M39.5,76.78L76.57,58.25"/><path class="cls-3" d="M76.57,58.25v92.67"/><path class="cls-3" d="M76.57,150.92H95.1"/><path class="cls-3" d="M95.1,150.92V58.25"/><path class="cls-3" d="M95.1,58.25l37.06,18.53"/><path class="cls-3" d="M132.16,76.78L85.31,20.9"/><path class="cls-4" d="M85.31,20.9L39.5,76.78"/><path class="cls-4" d="M39.5,76.78L76.57,58.25"/><path class="cls-4" d="M76.57,58.25v92.67"/><path class="cls-4" d="M76.57,150.92H95.1"/><path class="cls-4" d="M95.1,150.92V58.25"/><path class="cls-4" d="M95.1,58.25l37.06,18.53"/><path class="cls-4" d="M132.16,76.78L85.31,20.9"/></g></g><g id="tool1"><line class="cls-5" x1="106.7" y1="70.62" x2="110.77" y2="59.13"/><line class="cls-5" x1="64.67" y1="70.51" x2="60.14" y2="59.24"/><line class="cls-5" x1="97.59" y1="44.36" x2="105.7" y2="35.83"/><line class="cls-5" x1="100.4" y1="47.57" x2="108.5" y2="39.03"/><line class="cls-5" x1="71.14" y1="47.06" x2="63.36" y2="38.17"/><line class="cls-5" x1="74.06" y1="43.98" x2="66.28" y2="35.09"/><line class="cls-5" x1="71.71" y1="100.9" x2="81.85" y2="100.9"/><line class="cls-5" x1="71.71" y1="105.35" x2="81.85" y2="105.35"/><line class="cls-5" x1="71.71" y1="109.79" x2="81.85" y2="109.79"/><line class="cls-5" x1="89.91" y1="100.9" x2="100.29" y2="100.9"/><line class="cls-5" x1="89.91" y1="105.35" x2="100.29" y2="105.35"/><line class="cls-5" x1="89.91" y1="109.79" x2="100.29" y2="109.79"/><path class="cls-6" d="M85.31,20.9L39.5,76.61"/><path class="cls-6" d="M39.5,76.61L76.57,58.14"/><path class="cls-6" d="M76.57,58.14v92.38"/><path class="cls-6" d="M95.1,150.52V58.14"/><path class="cls-6" d="M95.1,58.14l37.06,18.48"/><path class="cls-6" d="M132.16,76.61L85.31,20.9"/><path class="cls-6" d="M85.31,20.9L39.5,76.61"/><path class="cls-6" d="M39.5,76.61L76.57,58.14"/><path class="cls-6" d="M76.57,58.14v92.38"/><path class="cls-6" d="M95.1,150.52V58.14"/><path class="cls-6" d="M95.1,58.14l37.06,18.48"/><path class="cls-6" d="M132.16,76.61L85.31,20.9"/></g></svg>