<svg xmlns="http://www.w3.org/2000/svg" width="115" height="100" xmlns:xlink="http://www.w3.org/1999/xlink" preserveAspectRatio="none"><defs><path id="b" fill="#fff" fill-opacity=".6" d="M5.25 3.4q.03 0 0-.05t-.1-.1q0 .02-.05.05-.05.03-.1.05l-1.4 4.8q.02.06.05.1.03.05.05.05.06.03.1 0 .05-.03.05-.1l1.4-4.8m3.7.95q-.02.02-.05.05-.05.03-.1.05l-1.3 4.8q.02.06.05.1.03.05.05.05.06.03.1 0 .05-.03.05-.1l1.3-4.8q.03-.02 0-.05-.03-.05-.1-.1m7.55 2q-.02.03-.05.05l-1.2 4.9q.02.08.05.1.03.07.05.05.08.03.1 0 .07-.03.05-.1l1.2-4.9q.03-.03 0-.1-.03-.02-.1-.05-.03.02-.1.05m-3.7-.95q-.02.02-.05.05-.05.03-.1.05l-1.3 4.8q.02.06.05.1.03.05.05.05.06.03.1 0 .05-.03.05-.1l1.3-4.8q.03-.02 0-.05-.03-.05-.1-.1m15.1 3.5q-.02.03-.05.05l-.9 4.9q.02.08.05.1.03.07.05.05.08.03.1 0 .07-.03.05-.1l.9-4.9q.03-.03 0-.1-.03-.02-.1-.05-.03.02-.1.05m-7.5-1.65q-.03.02-.1.05-.02.03-.05.05l-1.1 4.9q.02.08.05.1.03.07.05.05.08.03.1 0 .07-.03.05-.1l1.1-4.9q.03-.03 0-.1-.03-.02-.1-.05m3.9 1q.03-.03 0-.1-.03-.02-.1-.05-.03.02-.1.05-.02.03-.05.05l-1 4.9q.02.08.05.1.03.07.05.05.08.03.1 0 .07-.03.05-.1l1-4.9m11.4 2q.03-.03 0-.1-.03-.02-.1-.05-.03.02-.1.05-.02.03-.05.05l-.7 4.9q.02.08.05.1.03.07.05.05.08.03.1 0 .07-.03.05-.1l.7-4.9m3.7.35q-.02.03-.05.05l-.6 5q.02.08.05.1.03.07.05.05.08.03.1 0 .07-.03.05-.1l.6-5q.03-.03 0-.1-.03-.02-.1-.05-.03.02-.1.05m-7.7-1.05q-.02.03-.05.05l-.8 4.9q.02.08.05.1.03.07.05.05.08.03.1 0 .07-.03.05-.1l.8-4.9q.03-.03 0-.1-.03-.02-.1-.05-.03.02-.1.05m15.45 1.75q-.02.04-.05.1l-.3 5q.02.04.05.05.04.07.1.05.04.03.05 0 .07-.04.05-.1l.3-5q.03-.04 0-.1-.04-.02-.1-.05-.04.02-.1.05m-3.9-.3q-.02.04-.05.1l-.4 5q.02.04.05.05.04.07.1.05.04.03.05 0 .07-.04.05-.1l.4-5q.03-.04 0-.1-.04-.02-.1-.05-.04.02-.1.05m15.45.3q-.03.06-.05.1l.3 5q.03.06.05.1.06.03.1 0 .06.02.1-.05.03 0 0-.05l-.3-5q.02-.06-.05-.1 0-.03-.05-.05-.06.03-.1.05m-7.5.25q.03-.04 0-.1-.04-.02-.1-.05-.04.02-.1.05-.02.04-.05.1l-.1 5q.02.04.05.05.04.07.1.05.04.03.05 0 .07-.04.05-.1l.1-5m3.85 0q.02-.06-.05-.1 0-.03-.05-.05-.06.03-.1.05-.03.06-.05.1l.1 5q.03.06.05.1.06.03.1 0 .06.02.1-.05.03 0 0-.05l-.1-5m11.4-.95q.02-.02-.05-.05-.02-.03-.1-.05-.02.03-.05.05-.03.07-.05.1l.8 4.9q.03.07.05.1.07.03.1 0 .07.02.1-.05.03-.02 0-.1l-.8-4.9m3.5-.8q-.03.07-.05.1l1.1 4.9q.03.07.05.1.07.03.1 0 .07.02.1-.05.03-.02 0-.1l-1.1-4.9q.02-.02-.05-.05-.02-.03-.1-.05-.02.03-.05.05m-7.25 1.3q.02-.06-.05-.1 0-.03-.05-.05-.06.03-.1.05-.03.07-.05.1l.5 5q.03.07.05.1.06.03.1 0 .06.02.1-.05.03 0 0-.05l-.5-5m16.4 1.25l-1.8-4.7q0-.05-.05-.1-.05 0-.1 0-.05.05-.1.1 0 .05 0 .1l1.8 4.7q.05.05.1.05.05.04.1 0 .05 0 .05-.05.04-.05 0-.1M73.6 8.9q-.03.04-.05.05l1.4 4.8q.05.07.1.1.04.03.05 0 .07 0 .1-.05.03-.04 0-.1l-1.4-4.8q0-.03-.05-.05-.04-.03-.1-.05-.02.05-.05.1m9.1 1.9q0 .05.05.05.05.03.1 0 .05 0 .05-.05.03-.05 0-.1l-2.2-4.5q0-.05-.05-.1-.05.02-.1.05-.05 0-.1.05.02.05.05.1l2.2 4.5m1.05-6.4q.02.08.05.1l2.6 4.3q.03.07.05.05.08.03.1 0 .07-.03.05-.1.03-.03 0-.1L84 4.35q-.03-.02-.1-.05-.03.02-.1.05-.02.03-.05.05m3.15-2.15q-.02.03-.05.05.02.08.05.1l3 4q.03.07.05.05.08.03.1 0 .07-.03.05-.1.03-.03 0-.1l-3-4q-.03-.02-.1-.05-.03.02-.1.05M107.05-22q.08.03.1 0 .07-.03.05-.1.03-.03 0-.1-.03-.02-.1-.05l-4.9-1.1q-.03.02-.1.05-.02.03-.05.05.02.08.05.1.03.07.05.05l4.9 1.1M92.5-2.85q0-.03-.05-.05-.06.03-.1.05-.03.06-.05.1.03.06.05.1l3.8 3.3q.06.03.1 0 .06.02.1-.05.03 0 0-.05.02-.06-.05-.1l-3.8-3.3m2.15-2.95q-.03.07-.05.1.03.07.05.1l4.1 2.9q.07.03.1 0 .07.02.1-.05.03-.02 0-.1.02-.02-.05-.05l-4.1-2.9q-.02-.03-.1-.05-.02.03-.05.05m2.2-3.15q-.02-.03-.1-.05-.02.03-.05.05-.03.07-.05.1.03.07.05.1l4.3 2.5q.07.03.1 0 .07.02.1-.05.03-.02 0-.1.02-.02-.05-.05l-4.3-2.5m1.55-3.25q.05.05.1.05l4.5 2.1q.05.04.1 0 .05 0 .05-.05.04-.05 0-.1 0-.05-.05-.1l-4.5-2.1q-.05 0-.1 0-.05.05-.1.1 0 .05 0 .1M89.75-.15q-.02.04-.05.1.02.04.05.05l3.4 3.7q.04.07.1.05.04.03.05 0 .07-.04.05-.1.03-.04 0-.1l-3.4-3.7q-.04-.02-.1-.05-.04.02-.1.05m10.1-15.65q0 .05 0 .1.05.05.1.05l4.7 1.7q.05.04.1 0 .05 0 .05-.05.04-.05 0-.1 0-.05-.05-.1l-4.7-1.7q-.05 0-.1 0-.05.05-.1.1m1.25-3.7q.02.06.05.1.02.05.05.05l4.8 1.4q.06.03.1 0 .05-.03.05-.1.03 0 0-.05t-.1-.1l-4.8-1.4q0 .02-.05.05-.05.03-.1.05m1.8-7.5q.03.07.05.05l4.9.8q.08.03.1 0 .07-.03.05-.1.03-.03 0-.1-.03-.02-.1-.05l-4.9-.8q-.03.02-.1.05-.02.03-.05.05.02.08.05.1m.6-4q-.03.02-.1.05-.02.03-.05.05.02.08.05.1.03.07.05.05l5 .6q.08.03.1 0 .07-.03.05-.1.03-.03 0-.1-.03-.02-.1-.05l-5-.6m5.5-3.5q-.04-.02-.1-.05l-5-.3q-.04.02-.1.05-.02.04-.05.1.02.04.05.05.04.07.1.05l5 .3q.04.03.05 0 .07-.04.05-.1.03-.04 0-.1m-4.95-7.95q.04.03.1 0h5q.06.03.1 0 .03-.04 0-.1.03-.06 0-.1-.04-.03-.1-.05h-5q-.06.02-.1.05-.03.04-.05.1.02.06.05.1m-.1 3.85q.02.04.05.05.04.07.1.05l5 .1q.04.03.05 0 .07-.04.05-.1.03-.04 0-.1-.04-.02-.1-.05l-5-.1q-.04.02-.1.05-.02.04-.05.1m5.15-8.15q0-.03-.05-.05l-5 .2q-.06.03-.1.05-.03.06-.05.1.03.06.05.1.06.03.1 0l5-.2q.06.02.1-.05.03 0 0-.05.02-.06-.05-.1m-5.75-7.45q.06.03.1 0l5-.4q.06.02.1-.05.03 0 0-.05.02-.06-.05-.1 0-.03-.05-.05l-5 .4q-.06.03-.1.05-.03.06-.05.1.03.06.05.1m.3 3.8q.03.06.05.1.06.03.1 0l5-.3q.06.02.1-.05.03 0 0-.05.02-.06-.05-.1 0-.03-.05-.05l-5 .3q-.06.03-.1.05-.03.06-.05.1m4.45-8.5q-.02-.03-.1-.05l-5 .6q-.02.03-.05.05-.03.07-.05.1.03.07.05.1.07.03.1 0l5-.6q.07.02.1-.05.03-.02 0-.1.02-.02-.05-.05m-6.2-7.05q.07.03.1 0l4.9-.8q.07.02.1-.05.03-.02 0-.1.02-.02-.05-.05-.02-.03-.1-.05l-4.9.8q-.02.03-.05.05-.03.07-.05.1.03.07.05.1m.5 3.8q.03.07.05.1.07.03.1 0l5-.7q.07.02.1-.05.03-.02 0-.1.02-.02-.05-.05-.02-.03-.1-.05l-5 .7q-.02.03-.05.05-.03.07-.05.1M101.15-70q.03.07.05.1.07.03.1 0l4.9-.9q.07.02.1-.05.03-.02 0-.1.02-.02-.05-.05-.02-.03-.1-.05l-4.9.9q-.02.03-.05.05-.03.07-.05.1z"/><path id="c" fill="#B7B388" d="M883.75 16.35q1.9-1.85 1.9-4.5t-1.9-4.55q-1.85-1.85-4.5-1.85T874.7 7.3q-1.85 1.9-1.85 4.55t1.85 4.5q1.9 1.9 4.55 1.9t4.5-1.9z"/><path id="d" fill="#E2E2E2" fill-opacity=".498" d="M882.75 16.35q0 .4.3.7.3.3.7.3.4 0 .7-.3.3-.3.3-.7 0-.4-.3-.7-.3-.3-.7-.3-.4 0-.7.3-.3.3-.3.7m-7.55-.9q-.3-.3-.7-.3-.4 0-.7.3-.3.3-.3.7 0 .4.3.7.3.3.7.3.4 0 .7-.3.3-.3.3-.7 0-.4-.3-.7m4.65 2.1q-.3-.3-.7-.3-.4 0-.7.3-.3.3-.3.7 0 .4.3.7.3.3.7.3.4 0 .7-.3.3-.3.3-.7 0-.4-.3-.7m-7.7-6.7q-.3.3-.3.7 0 .4.3.7.3.3.7.3.4 0 .7-.3.3-.3.3-.7 0-.4-.3-.7-.3-.3-.7-.3-.4 0-.7.3M874.1 7q0 .4.3.7.3.3.7.3.4 0 .7-.3.3-.3.3-.7 0-.4-.3-.7-.3-.3-.7-.3-.4 0-.7.3-.3.3-.3.7m4.85-2.25q-.3.3-.3.7 0 .4.3.7.3.3.7.3.4 0 .7-.3.3-.3.3-.7 0-.4-.3-.7-.3-.3-.7-.3-.4 0-.7.3m6.7 6.3q-.4 0-.7.3-.3.3-.3.7 0 .4.3.7.3.3.7.3.4 0 .7-.3.3-.3.3-.7 0-.4-.3-.7-.3-.3-.7-.3m-.9-4.1q-.3-.3-.7-.3-.4 0-.7.3-.3.3-.3.7 0 .4.3.7.3.3.7.3.4 0 .7-.3.3-.3.3-.7 0-.4-.3-.7z"/><path id="e" fill="#A6A26A" d="M883.75 16.35q1.9-1.85 1.9-4.5t-1.9-4.55q-1.85-1.85-4.5-1.85T874.7 7.3q-1.85 1.9-1.85 4.55t1.85 4.5q1.9 1.9 4.55 1.9t4.5-1.9z"/><path id="f" fill="#E2E2E2" fill-opacity=".498" d="M884.8 15.3q-.45-.45-1.05-.45-.6 0-1.05.45-.45.45-.45 1.05 0 .6.45 1.05.45.45 1.05.45.6 0 1.05-.45.45-.45.45-1.05 0-.6-.45-1.05m-10.25-1.65q-.45-.45-1.05-.45-.6 0-1.05.45-.45.45-.45 1.05 0 .6.45 1.05.45.45 1.05.45.6 0 1.05-.45.45-.45.45-1.05 0-.6-.45-1.05m4.7 3.45q-.45-.45-1.05-.45-.6 0-1.05.45-.45.45-.45 1.05 0 .6.45 1.05.45.45 1.05.45.6 0 1.05-.45.45-.45.45-1.05 0-.6-.45-1.05m-6.8-9.15Q872 8.4 872 9q0 .6.45 1.05.45.45 1.05.45.6 0 1.05-.45Q875 9.6 875 9q0-.6-.45-1.05-.45-.45-1.05-.45-.6 0-1.05.45m4.6-3.45q-.45.45-.45 1.05 0 .6.45 1.05.45.45 1.05.45.6 0 1.05-.45.45-.45.45-1.05 0-.6-.45-1.05-.45-.45-1.05-.45-.6 0-1.05.45m8.55 6.7q-.6 0-1.05.45-.45.45-.45 1.05 0 .6.45 1.05.45.45 1.05.45.6 0 1.05-.45.45-.45.45-1.05 0-.6-.45-1.05-.45-.45-1.05-.45m-.9-5.05q-.45-.45-1.05-.45-.6 0-1.05.45-.45.45-.45 1.05 0 .6.45 1.05.45.45 1.05.45.6 0 1.05-.45.45-.45.45-1.05 0-.6-.45-1.05z"/><path id="a" fill="none" stroke="#fff" stroke-opacity=".298" stroke-width="5" d="M4.45 5.8q120.18 35.22 99-79" stroke-linejoin="round" stroke-linecap="round"/></defs><use xlink:href="#a" transform="translate(3 81.6)"/><use xlink:href="#b" transform="translate(3 81.6)"/><g transform="translate(3 81.6) translate(-872.85 -5.45)"><use xlink:href="#c"/><use xlink:href="#d"/></g><g transform="translate(3 81.6) translate(-775.8 -85.05)"><use xlink:href="#e"/><use xlink:href="#f"/></g></svg>