<svg xmlns="http://www.w3.org/2000/svg" width="85" height="50" xmlns:xlink="http://www.w3.org/1999/xlink" preserveAspectRatio="none"><defs><path id="b" fill="#fff" fill-opacity=".6" d="M3.95 3.25q-.03.07-.05.1l.8 4.9q.03.07.05.1.07.03.1 0 .07.02.1-.05.03-.02 0-.1l-.8-4.9q.02-.02-.05-.05-.02-.03-.1-.05-.02.03-.05.05M8 2.6q-.02.03-.05.05-.03.07-.05.1l.6 5q.03.07.05.1.07.03.1 0 .07.02.1-.05.03-.02 0-.1l-.6-5q.02-.02-.05-.05-.02-.03-.1-.05m4.05-.45q-.06.03-.1.05-.03.07-.05.1l.5 5q.03.07.05.1.06.03.1 0 .06.02.1-.05.03 0 0-.05l-.5-5q.02-.06-.05-.1 0-.03-.05-.05M16 1.9q-.03.06-.05.1l.3 5q.03.06.05.1.06.03.1 0 .06.02.1-.05.03 0 0-.05l-.3-5q.02-.06-.05-.1 0-.03-.05-.05-.06.03-.1.05m4.25 5q.06.02.1-.05.03 0 0-.05l-.1-5q.02-.06-.05-.1 0-.03-.05-.05-.06.03-.1.05-.03.06-.05.1l.1 5q.03.06.05.1.06.03.1 0m3.95-5.25q-.04.02-.1.05-.02.04-.05.1l-.1 5q.02.04.05.05.04.07.1.05.04.03.05 0 .07-.04.05-.1l.1-5q.03-.04 0-.1-.04-.02-.1-.05m4 .2q-.04.02-.1.05-.02.04-.05.1l-.3 5q.02.04.05.05.04.07.1.05.04.03.05 0 .07-.04.05-.1l.3-5q.03-.04 0-.1-.04-.02-.1-.05m4.05.4q-.03.02-.1.05-.02.03-.05.05l-.6 5q.02.08.05.1.03.07.05.05.08.03.1 0 .07-.03.05-.1l.6-5q.03-.03 0-.1-.03-.02-.1-.05m4.05.65q-.03.02-.1.05-.02.03-.05.05l-.9 4.9q.02.08.05.1.03.07.05.05.08.03.1 0 .07-.03.05-.1l.9-4.9q.03-.03 0-.1-.03-.02-.1-.05m4 .9q-.03.02-.1.05-.02.03-.05.05l-1.2 4.8q.02.08.05.1.03.07.05.05.08.03.1 0 .07-.03.05-.1l1.2-4.8q.03-.03 0-.1-.03-.02-.1-.05M65.5 33q-.04.05-.05.1-.03.05-.05.1.05.04.1.05.05.03.1 0l4.7-1.6q.04 0 .05-.05.03-.05 0-.1 0-.04-.05-.05-.05-.03-.1-.05L65.5 33m3.3-5.5q-.05 0-.1 0l-4.6 2q-.05.05-.1.1 0 .05 0 .1.05.05.1.05.05.04.1 0l4.6-2q.05 0 .05-.05.04-.05 0-.1 0-.05-.05-.1m2.7 8.25q.07 0 .1-.05.03-.04 0-.1 0-.02-.05-.05-.04-.03-.1-.05l-4.8 1.3q-.02.05-.05.1-.03.03-.05.05.05.07.1.1.03.03.05 0l4.8-1.3m-12.45-22.2q-.06.03-.1.05l-3.4 3.7q-.03.06-.05.1.03.06.05.1.06.03.1 0 .06.02.1-.05l3.4-3.7q.03 0 0-.05.02-.06-.05-.1 0-.03-.05-.05M48.25 6.5q-.05 0-.1 0-.05.05-.1.1l-2 4.6q0 .05 0 .1.05.05.1.05.05.04.1 0 .05 0 .05-.05l2-4.6q.04-.05 0-.1 0-.05-.05-.1m-4-1.45q-.05 0-.1.05l-1.6 4.7q.02.05.05.1 0 .05.05.05.05.03.1 0 .05 0 .05-.05l1.6-4.7q.03-.05 0-.1 0-.05-.05-.1-.05.02-.1.05M52.1 8.7q.03-.02 0-.1.02-.02-.05-.05-.02-.03-.1-.05-.02.03-.05.05l-2.5 4.3q-.03.07-.05.1.03.07.05.1.07.03.1 0 .07.02.1-.05l2.5-4.3m3.65 2.35q.03-.02 0-.1.02-.02-.05-.05-.02-.03-.1-.05-.02.03-.05.05l-2.9 4q-.03.07-.05.1.03.07.05.1.07.03.1 0 .07.02.1-.05l2.9-4m11.15 12.7q0 .02-.05.05l-4.4 2.4q-.05.03-.1.05.02.06.05.1.03.05.05.05.06.03.1 0l4.4-2.4q.05-.03.05-.1.03 0 0-.05t-.1-.1m-2.2-3.65q-.03-.02-.1-.05-.03.02-.1.05L60.4 23q-.02.03-.05.05.02.08.05.1.03.07.05.05.08.03.1 0l4.1-2.9q.07-.03.05-.1.03-.03 0-.1m-2.6-3.4q-.04-.02-.1-.05-.04.02-.1.05L58.1 20q-.02.04-.05.1.02.04.05.05.04.07.1.05.04.03.05 0l3.8-3.3q.07-.04.05-.1.03-.04 0-.1z"/><path id="c" fill="#B7B388" d="M883.75 16.35q1.9-1.85 1.9-4.5t-1.9-4.55q-1.85-1.85-4.5-1.85T874.7 7.3q-1.85 1.9-1.85 4.55t1.85 4.5q1.9 1.9 4.55 1.9t4.5-1.9z"/><path id="d" fill="#E2E2E2" fill-opacity=".498" d="M882.75 16.35q0 .4.3.7.3.3.7.3.4 0 .7-.3.3-.3.3-.7 0-.4-.3-.7-.3-.3-.7-.3-.4 0-.7.3-.3.3-.3.7m-7.55-.9q-.3-.3-.7-.3-.4 0-.7.3-.3.3-.3.7 0 .4.3.7.3.3.7.3.4 0 .7-.3.3-.3.3-.7 0-.4-.3-.7m4.65 2.1q-.3-.3-.7-.3-.4 0-.7.3-.3.3-.3.7 0 .4.3.7.3.3.7.3.4 0 .7-.3.3-.3.3-.7 0-.4-.3-.7m-7.7-6.7q-.3.3-.3.7 0 .4.3.7.3.3.7.3.4 0 .7-.3.3-.3.3-.7 0-.4-.3-.7-.3-.3-.7-.3-.4 0-.7.3M874.1 7q0 .4.3.7.3.3.7.3.4 0 .7-.3.3-.3.3-.7 0-.4-.3-.7-.3-.3-.7-.3-.4 0-.7.3-.3.3-.3.7m4.85-2.25q-.3.3-.3.7 0 .4.3.7.3.3.7.3.4 0 .7-.3.3-.3.3-.7 0-.4-.3-.7-.3-.3-.7-.3-.4 0-.7.3m6.7 6.3q-.4 0-.7.3-.3.3-.3.7 0 .4.3.7.3.3.7.3.4 0 .7-.3.3-.3.3-.7 0-.4-.3-.7-.3-.3-.7-.3m-.9-4.1q-.3-.3-.7-.3-.4 0-.7.3-.3.3-.3.7 0 .4.3.7.3.3.7.3.4 0 .7-.3.3-.3.3-.7 0-.4-.3-.7z"/><path id="e" fill="#A6A26A" d="M883.75 16.35q1.9-1.85 1.9-4.5t-1.9-4.55q-1.85-1.85-4.5-1.85T874.7 7.3q-1.85 1.9-1.85 4.55t1.85 4.5q1.9 1.9 4.55 1.9t4.5-1.9z"/><path id="f" fill="#E2E2E2" fill-opacity=".498" d="M882.75 16.35q0 .4.3.7.3.3.7.3.4 0 .7-.3.3-.3.3-.7 0-.4-.3-.7-.3-.3-.7-.3-.4 0-.7.3-.3.3-.3.7m-7.55-.9q-.3-.3-.7-.3-.4 0-.7.3-.3.3-.3.7 0 .4.3.7.3.3.7.3.4 0 .7-.3.3-.3.3-.7 0-.4-.3-.7m4.65 2.1q-.3-.3-.7-.3-.4 0-.7.3-.3.3-.3.7 0 .4.3.7.3.3.7.3.4 0 .7-.3.3-.3.3-.7 0-.4-.3-.7m-7.7-6.7q-.3.3-.3.7 0 .4.3.7.3.3.7.3.4 0 .7-.3.3-.3.3-.7 0-.4-.3-.7-.3-.3-.7-.3-.4 0-.7.3M874.1 7q0 .4.3.7.3.3.7.3.4 0 .7-.3.3-.3.3-.7 0-.4-.3-.7-.3-.3-.7-.3-.4 0-.7.3-.3.3-.3.7m4.85-2.25q-.3.3-.3.7 0 .4.3.7.3.3.7.3.4 0 .7-.3.3-.3.3-.7 0-.4-.3-.7-.3-.3-.7-.3-.4 0-.7.3m6.7 6.3q-.4 0-.7.3-.3.3-.3.7 0 .4.3.7.3.3.7.3.4 0 .7-.3.3-.3.3-.7 0-.4-.3-.7-.3-.3-.7-.3m-.9-4.1q-.3-.3-.7-.3-.4 0-.7.3-.3.3-.3.7 0 .4.3.7.3.3.7.3.4 0 .7-.3.3-.3.3-.7 0-.4-.3-.7z"/><path id="a" fill="none" stroke="#fff" stroke-opacity=".298" stroke-width="5" d="M4.45 5.8q53.2-8.85 65 32" stroke-linejoin="round" stroke-linecap="round"/></defs><use xlink:href="#a" transform="matrix(1.052 0 0 1.051 2.5 .95)"/><use xlink:href="#b" transform="matrix(1.052 0 0 1.051 2.5 .95)"/><g transform="matrix(1.052 0 0 1.051 -915.738 -4.778)"><use xlink:href="#c"/><use xlink:href="#d"/></g><g transform="matrix(1.052 0 0 1.051 -849.199 29.905)"><use xlink:href="#e"/><use xlink:href="#f"/></g></svg>