<?xml version="1.0" encoding="utf-8"?>
<!-- Generator: Adobe Illustrator 19.2.1, SVG Export Plug-In . SVG Version: 6.00 Build 0)  -->
<svg version="1.1" id="blue" xmlns="http://www.w3.org/2000/svg" xmlns:xlink="http://www.w3.org/1999/xlink" x="0px" y="0px"
	 viewBox="0 0 170 170" style="enable-background:new 0 0 170 170;" xml:space="preserve">
<style type="text/css">
	.st0{opacity:0;}
	.st1{fill:#2580B2;}
	.st2{display:none;}
	.st3{display:inline;fill:none;stroke:#993300;stroke-linecap:round;stroke-linejoin:round;}
	.st4{display:inline;fill:none;stroke:#36EAA5;stroke-width:3;stroke-linecap:round;stroke-linejoin:round;}
	.st5{fill:none;stroke:#FF6666;stroke-width:2;stroke-linecap:round;stroke-linejoin:round;}
</style>
<title>53_tool1B_m1</title>
<g id="transparent_bg" class="st0">
	<rect class="st1" width="170" height="170"/>
</g>
<g id="shape" class="st2">
	<path class="st3" d="M57.6,145.1h54.8l34.2-42.9l-12.2-53.5L85,24.9L35.6,48.7l-12.2,53.5L57.6,145.1z"/>
	<path class="st3" d="M57.6,145.1h54.8"/>
	<path class="st3" d="M112.4,145.1l34.2-42.9"/>
	<path class="st3" d="M134.4,48.7L85,24.9"/>
	<path class="st3" d="M85,24.9L35.6,48.7"/>
	<path class="st3" d="M35.6,48.7l-12.2,53.5"/>
	<path class="st3" d="M23.4,102.2l34.2,42.9"/>
	<path class="st4" d="M57.6,145.1h54.8l34.2-42.9l-12.2-53.5L85,24.9L35.6,48.7l-12.2,53.5L57.6,145.1z"/>
	<path class="st4" d="M57.6,145.1h54.8"/>
	<path class="st4" d="M112.4,145.1l34.2-42.9"/>
	<path class="st4" d="M134.4,48.7L85,24.9"/>
	<path class="st4" d="M85,24.9L35.6,48.7"/>
	<path class="st4" d="M35.6,48.7l-12.2,53.5"/>
	<path class="st4" d="M23.4,102.2l34.2,42.9"/>
</g>
<g id="tool1B">
	<path class="st5" d="M57.6,145.1h54.8"/>
	<path class="st5" d="M112.4,145.1l34.2-42.9"/>
	<path class="st5" d="M134.4,48.7L85,24.9"/>
	<path class="st5" d="M85,24.9L35.6,48.7"/>
	<path class="st5" d="M35.6,48.7l-12.2,53.5"/>
	<path class="st5" d="M23.4,102.2l34.2,42.9"/>
	<path class="st5" d="M134.4,48.5l12.2,53.5"/>
</g>
</svg>
