<svg xmlns="http://www.w3.org/2000/svg" viewBox="0 0 170 170"><defs><style>.a{opacity:0;}.b{fill:#2580b2;}.Graphic-Style,.c,.d{fill:none;}.c{stroke:#000;}.c,.d{stroke-linecap:round;stroke-linejoin:round;}.d{stroke:#36eaa5;stroke-width:3px;}.Graphic-Style{stroke:#fff;stroke-linejoin:bevel;stroke-width:2px;}</style></defs><title>68_tool1</title><g class="a"><rect class="b" width="170" height="170"/></g><path class="c" d="M31.57,48.47v90"/><path class="c" d="M138.43,48.47v90"/><path class="c" d="M31.57,138.43H138.43"/><path class="d" d="M31.57,48.47v90"/><path class="d" d="M138.43,48.47v90"/><path class="d" d="M31.57,138.43H138.43"/><path class="d" d="M138.43,48.64"/><path class="d" d="M151.59,18.89"/><path class="d" d="M138.43,48.64a66.59,66.59,0,0,1-106.86,0"/><path class="d" d="M18.41,18.89"/><path class="d" d="M31.57,48.64"/><path class="d" d="M31.57,138.43"/><path class="d" d="M31.57,48.64"/><line class="d" x1="31.57" y1="48.47" x2="31.57" y2="48.64"/><path class="d" d="M138.43,138.43"/><path class="d" d="M138.43,48.64"/><line class="d" x1="138.43" y1="48.47" x2="138.43" y2="48.64"/><line class="Graphic-Style" x1="130.7" y1="93.53" x2="146.17" y2="93.53"/><line class="Graphic-Style" x1="23.83" y1="93.53" x2="39.3" y2="93.53"/><path class="Graphic-Style" d="M31.57,48.64v89.8"/><path class="Graphic-Style" d="M138.43,48.64v89.8"/></svg>