<svg id="_43" data-name="43" xmlns="http://www.w3.org/2000/svg" viewBox="0 0 170 170"><defs><style>.cls-1{opacity:0;}.cls-2{fill:#2580b2;}.cls-3,.cls-4{fill:none;stroke:#fff;stroke-width:2px;}.cls-3{stroke-linecap:round;stroke-linejoin:round;}.cls-4{stroke-miterlimit:10;}</style></defs><title>43_tool1</title><g id="transparent_bg" data-name="transparent bg" class="cls-1"><rect class="cls-2" width="170" height="170"/></g><g id="tool1"><line class="cls-3" x1="108.3" y1="109.31" x2="117.36" y2="124.34"/><line class="cls-3" x1="107.21" y1="47.28" x2="116.27" y2="62.31"/><line class="cls-3" x1="55.26" y1="62.33" x2="64.27" y2="47.27"/><line class="cls-3" x1="52.87" y1="124.14" x2="61.87" y2="109.07"/><line class="cls-3" x1="130.15" y1="77.63" x2="147.71" y2="77.63"/><line class="cls-3" x1="21.85" y1="77.63" x2="39.4" y2="77.63"/><path class="cls-4" d="M30.63,101.13l53.93,30.94"/><path class="cls-4" d="M84.56,132.08l54.37-30.5"/><path class="cls-4" d="M139.37,39.69L84.12,69.75"/><path class="cls-4" d="M138.93,101.58l0.44-61.89"/><path class="cls-4" d="M84.12,69.75L30.63,37.92"/><path class="cls-4" d="M30.63,37.92v63.21"/><path class="cls-4" d="M30.63,101.13l53.93,30.94"/><path class="cls-4" d="M84.56,132.08l54.37-30.5"/><path class="cls-4" d="M139.37,39.69L84.12,69.75"/><path class="cls-4" d="M138.93,101.58l0.44-61.89"/><path class="cls-4" d="M84.12,69.75L30.63,37.92"/><path class="cls-4" d="M30.63,37.92v63.21"/><line class="cls-4" x1="108.3" y1="109.31" x2="117.36" y2="124.34"/><line class="cls-4" x1="107.21" y1="47.28" x2="116.27" y2="62.31"/><line class="cls-4" x1="55.26" y1="62.33" x2="64.27" y2="47.27"/><line class="cls-4" x1="52.87" y1="124.14" x2="61.87" y2="109.07"/><line class="cls-4" x1="130.15" y1="77.63" x2="147.71" y2="77.63"/><line class="cls-4" x1="21.85" y1="77.63" x2="39.4" y2="77.63"/><path class="cls-4" d="M30.63,101.13l53.93,30.94"/><path class="cls-4" d="M84.56,132.08l54.37-30.5"/><path class="cls-4" d="M139.37,39.69L84.12,69.75"/><path class="cls-4" d="M138.93,101.58l0.44-61.89"/><path class="cls-4" d="M84.12,69.75L30.63,37.92"/><path class="cls-4" d="M30.63,37.92v63.21"/><path class="cls-4" d="M30.63,101.13l53.93,30.94"/><path class="cls-4" d="M84.56,132.08l54.37-30.5"/><path class="cls-4" d="M139.37,39.69L84.12,69.75"/><path class="cls-4" d="M138.93,101.58l0.44-61.89"/><path class="cls-4" d="M84.12,69.75L30.63,37.92"/><path class="cls-4" d="M30.63,37.92v63.21"/><path class="cls-4" d="M30.63,101.13l53.93,30.94"/><path class="cls-4" d="M84.56,132.08l54.37-30.5"/><path class="cls-4" d="M139.37,39.69L84.12,69.75"/><path class="cls-4" d="M138.93,101.58l0.44-61.89"/><path class="cls-4" d="M84.12,69.75L30.63,37.92"/><path class="cls-4" d="M30.63,37.92v63.21"/></g></svg>