<svg xmlns="http://www.w3.org/2000/svg" viewBox="0 0 170 170"><defs><style>.a{opacity:0;}.b{fill:#2580b2;}.c,.d,.e{fill:none;stroke-linejoin:round;}.c{stroke:#fff;stroke-width:2px;}.d{stroke:#000;}.d,.e{stroke-linecap:round;}.e{stroke:#36eaa5;stroke-width:3px;}</style></defs><title>68_tool2B</title><g class="a"><rect class="b" width="170" height="170"/></g><rect class="c" x="31.57" y="117.75" width="20.68" height="20.68"/><rect class="c" x="117.75" y="117.75" width="20.68" height="20.68"/><path class="d" d="M31.57,48.47v90"/><path class="d" d="M138.43,48.47v90"/><path class="d" d="M31.57,138.43H138.43"/><path class="e" d="M31.57,48.47v90"/><path class="e" d="M138.43,48.47v90"/><path class="e" d="M31.57,138.43H138.43"/><path class="e" d="M138.43,48.64"/><path class="e" d="M151.59,18.89"/><path class="e" d="M138.43,48.64a66.59,66.59,0,0,1-106.86,0"/><path class="e" d="M18.41,18.89"/><path class="e" d="M31.57,48.64"/><path class="e" d="M31.57,138.43"/><path class="e" d="M31.57,48.64"/><line class="e" x1="31.57" y1="48.47" x2="31.57" y2="48.64"/><path class="e" d="M138.43,138.43"/><path class="e" d="M138.43,48.64"/><line class="e" x1="138.43" y1="48.47" x2="138.43" y2="48.64"/></svg>