<svg xmlns="http://www.w3.org/2000/svg" viewBox="0 0 170 170"><defs><style>.a{opacity:0;}.b{fill:#2580b2;}.Graphic-Style,.c,.d{fill:none;}.c{stroke:#000;}.c,.d{stroke-linecap:round;stroke-linejoin:round;}.d{stroke:#36eaa5;stroke-width:3px;}.Graphic-Style{stroke:#fff;stroke-linejoin:bevel;stroke-width:2px;}</style></defs><title>69_tool1</title><g class="a"><rect class="b" width="170" height="170"/></g><path class="c" d="M58.48,114.78L85,141.31"/><path class="c" d="M85,141.31l26.52-26.52"/><path class="d" d="M58.48,114.78L85,141.31"/><path class="d" d="M85,141.31l26.52-26.52"/><path class="d" d="M111.52,35.35a35.67,35.67,0,0,1-53,0"/><line class="d" x1="58.48" y1="35.22" x2="58.48" y2="35.35"/><line class="d" x1="58.48" y1="35.35" x2="58.48" y2="114.78"/><line class="d" x1="111.52" y1="35.22" x2="111.52" y2="35.35"/><line class="d" x1="111.52" y1="35.35" x2="111.52" y2="114.78"/><line class="Graphic-Style" x1="103.79" y1="75" x2="119.26" y2="75"/><line class="Graphic-Style" x1="92.79" y1="122.58" x2="103.73" y2="133.51"/><line class="Graphic-Style" x1="77.21" y1="122.58" x2="66.27" y2="133.51"/><line class="Graphic-Style" x1="50.74" y1="75" x2="66.21" y2="75"/><line class="Graphic-Style" x1="103.79" y1="80.17" x2="119.26" y2="80.17"/><line class="Graphic-Style" x1="50.74" y1="80.17" x2="66.21" y2="80.17"/><path class="Graphic-Style" d="M111.52,35.22v79.57"/><path class="Graphic-Style" d="M58.48,35.22v79.57"/><path class="Graphic-Style" d="M58.48,114.78L85,141.31"/><path class="Graphic-Style" d="M85,141.31l26.52-26.52"/></svg>