<svg xmlns="http://www.w3.org/2000/svg" viewBox="0 0 170 170"><defs><style>.a{opacity:0;}.b{fill:#2580b2;}.c,.d,.e{fill:none;stroke-linecap:round;stroke-linejoin:round;}.c{stroke:#000;}.d{stroke:#36eaa5;stroke-width:3px;}.e{stroke:#fff;stroke-width:2px;}</style></defs><title>69_tool3</title><g class="a"><rect class="b" width="170" height="170"/></g><path class="c" d="M58.48,114.78L85,141.31"/><path class="c" d="M85,141.31l26.52-26.52"/><path class="d" d="M58.48,114.78L85,141.31"/><path class="d" d="M85,141.31l26.52-26.52"/><path class="d" d="M111.52,35.35a35.67,35.67,0,0,1-53,0"/><line class="d" x1="58.48" y1="35.22" x2="58.48" y2="35.35"/><line class="d" x1="58.48" y1="35.35" x2="58.48" y2="114.78"/><line class="d" x1="111.52" y1="35.22" x2="111.52" y2="35.35"/><line class="d" x1="111.52" y1="35.35" x2="111.52" y2="114.78"/><polyline class="e" points="49.7 77.95 58.48 70.95 67.25 77.95"/><polyline class="e" points="102.75 78.5 111.52 71.5 120.3 78.5"/><line class="e" x1="58.48" y1="35.22" x2="58.48" y2="113.68"/><line class="e" x1="111.52" y1="35.22" x2="111.52" y2="114.78"/></svg>